HIERARCHY
ROOT Joint1
{
	OFFSET 0.000000 0.000000 0.000000
	CHANNELS 6 Xposition Yposition Zposition Xrotation Yrotation Zrotation
	JOINT Joint2
	{
		OFFSET -0.000000 0.000000 1.456275
		CHANNELS 6 Xposition Yposition Zposition Xrotation Yrotation Zrotation
		JOINT Joint3
		{
			OFFSET -0.000000 0.000002 1.471446
			CHANNELS 6 Xposition Yposition Zposition Xrotation Yrotation Zrotation
			JOINT Joint4
			{
				OFFSET 0.625745 0.000000 0.917755
				CHANNELS 6 Xposition Yposition Zposition Xrotation Yrotation Zrotation
				JOINT Joint5
				{
					OFFSET -0.629534 0.000001 0.940221
					CHANNELS 6 Xposition Yposition Zposition Xrotation Yrotation Zrotation
					JOINT Joint6
					{
						OFFSET -0.000001 0.113772 1.960660
						CHANNELS 6 Xposition Yposition Zposition Xrotation Yrotation Zrotation
						JOINT Joint7
						{
							OFFSET -0.669733 -0.113771 0.388340
							CHANNELS 6 Xposition Yposition Zposition Xrotation Yrotation Zrotation
							End Site
							{
								OFFSET 0.005509 0.005509 0.438980
							}
						}
					}
				}
			}
		}
	}
}
MOTION
Frames: 9
Frame Time: 0.041667
0.000000 0.000000 0.000000 -0.000000 1.019410 35.542925 -0.000000 0.000000 1.456275 0.000000 -66.896007 -0.000001 -0.000000 0.000002 1.471446 -0.000001 -1.133463 -52.711162 0.625745 0.000001 0.917755 0.000000 78.596401 0.000009 -0.629534 0.000001 0.940221 -0.000002 1.709739 -68.331890 -0.000001 0.113772 1.960660 -88.303882 133.205054 0.000002 -0.669733 -0.113771 0.388340 -0.211789 3.438492 105.959935 
0.000000 0.000000 0.000000 -0.000000 1.019410 36.683235 -0.000000 -0.000000 1.456275 -0.000002 -67.598847 0.000005 -0.000000 0.000002 1.471446 -0.000002 -1.133464 -54.400886 0.625745 0.000001 0.917755 -0.000015 76.786681 -0.000001 -0.629534 0.000001 0.940221 -0.000000 1.709739 -70.523165 -0.000001 0.113772 1.960660 -88.303882 134.591637 0.000003 -0.669733 -0.113771 0.388341 -0.197405 3.430367 105.029506 
0.000000 0.000000 0.000000 -0.000000 1.019410 37.778825 -0.000000 0.000000 1.456275 -0.000007 -68.274127 0.000003 -0.000000 0.000002 1.471446 -0.000001 -1.133463 -56.024336 0.625745 0.000001 0.917755 -0.000010 75.047926 0.000002 -0.629534 0.000001 0.940220 -0.000003 1.709738 -72.628502 -0.000001 0.113772 1.960661 -88.303882 135.923852 -0.000004 -0.669733 -0.113771 0.388340 -0.183706 3.422338 104.135557 
0.000000 0.000000 0.000000 -0.000000 1.019410 38.841619 -0.000000 -0.000000 1.456275 -0.000003 -68.929183 -0.000004 -0.000000 0.000002 1.471446 -0.000001 -1.133462 -57.599197 0.625745 0.000000 0.917755 -0.000016 73.361231 0.000008 -0.629534 0.000001 0.940221 0.000003 1.709736 -74.670811 -0.000000 0.113772 1.960661 -88.303875 137.216178 0.000000 -0.669733 -0.113771 0.388340 -0.170549 3.414354 103.268389 
0.000000 0.000000 0.000000 -0.000000 1.019410 39.916332 -0.000000 0.000000 1.456275 -0.000002 -69.591595 -0.000010 -0.000000 0.000002 1.471446 -0.000000 -1.133465 -59.191724 0.625745 0.000000 0.917755 0.000009 71.655617 0.000012 -0.629534 0.000001 0.940221 0.000001 1.709734 -76.736028 -0.000000 0.113772 1.960660 -88.303875 138.523012 0.000000 -0.669733 -0.113771 0.388340 -0.157364 3.406071 102.391482 
0.000000 0.000000 0.000000 -0.000000 1.019410 41.000010 -0.000000 0.000000 1.456275 0.000010 -70.259526 -0.000001 -0.000000 0.000002 1.471446 -0.000005 -1.133466 -60.797515 0.625744 0.000000 0.917755 -0.000009 69.935775 0.000005 -0.629534 0.000001 0.940220 -0.000007 1.709738 -78.818457 -0.000001 0.113772 1.960661 -88.303882 139.840719 -0.000001 -0.669733 -0.113770 0.388339 -0.144202 3.397522 101.507314 
0.000000 0.000000 0.000000 -0.000000 1.019410 42.080714 -0.000000 -0.000000 1.456275 0.000005 -70.925627 -0.000001 -0.000000 0.000002 1.471446 -0.000002 -1.133462 -62.398908 0.625744 0.000000 0.917755 0.000003 68.220640 0.000004 -0.629534 0.000001 0.940221 0.000000 1.709737 -80.895176 -0.000001 0.113772 1.960660 -88.303882 141.154820 -0.000004 -0.669733 -0.113771 0.388340 -0.131204 3.388797 100.625550 
0.000000 0.000000 0.000000 -0.000000 1.019410 43.158394 -0.000000 0.000000 1.456275 0.000005 -71.589870 0.000002 -0.000000 0.000002 1.471446 -0.000008 -1.133464 -63.995819 0.625744 0.000000 0.917755 0.000002 66.510326 0.000003 -0.629534 0.000001 0.940221 -0.000001 1.709738 -82.966096 -0.000001 0.113772 1.960660 -88.303882 142.465247 -0.000000 -0.669733 -0.113771 0.388340 -0.118376 3.379894 99.746273 
0.000000 0.000000 0.000000 -0.000000 1.019410 44.236014 -0.000000 0.000000 1.456275 -0.000013 -72.254071 -0.000003 -0.000000 0.000001 1.471445 -0.000000 -1.133463 -65.592656 0.625745 0.000000 0.917755 0.000006 64.800102 0.000001 -0.629534 0.000001 0.940221 0.000000 1.709736 -85.036900 -0.000001 0.113772 1.960660 -88.303875 143.775619 0.000002 -0.669733 -0.113772 0.388340 -0.105701 3.370799 98.867050 
